<svg width="19" height="19" viewBox="0 0 19 19" fill="none" xmlns="http://www.w3.org/2000/svg">
<g clip-path="url(#clip0_52_163)">
<path d="M3.9585 11.875H3.16683C2.7469 11.875 2.34418 11.7082 2.04724 11.4112C1.75031 11.1143 1.5835 10.7116 1.5835 10.2916V3.16665C1.5835 2.74672 1.75031 2.34399 2.04724 2.04706C2.34418 1.75013 2.7469 1.58331 3.16683 1.58331H10.2918C10.7118 1.58331 11.1145 1.75013 11.4114 2.04706C11.7083 2.34399 11.8752 2.74672 11.8752 3.16665V3.95831M8.7085 7.12498H15.8335C16.7079 7.12498 17.4168 7.83386 17.4168 8.70831V15.8333C17.4168 16.7078 16.7079 17.4166 15.8335 17.4166H8.7085C7.83405 17.4166 7.12516 16.7078 7.12516 15.8333V8.70831C7.12516 7.83386 7.83405 7.12498 8.7085 7.12498Z" stroke="#C3C3C3" stroke-width="3" stroke-linecap="round" stroke-linejoin="round"/>
</g>
<defs>
<clipPath id="clip0_52_163">
<rect width="19" height="19" fill="white"/>
</clipPath>
</defs>
</svg>
