<svg width="33" height="33" viewBox="0 0 33 33" fill="none" xmlns="http://www.w3.org/2000/svg">
<path d="M15.8125 30.25C13.7042 30.25 11.9167 29.5167 10.45 28.05C8.98333 26.5833 8.25 24.7958 8.25 22.6875V8.25C8.25 6.7375 8.78854 5.44271 9.86563 4.36563C10.9427 3.28854 12.2375 2.75 13.75 2.75C15.2625 2.75 16.5573 3.28854 17.6344 4.36563C18.7115 5.44271 19.25 6.7375 19.25 8.25V21.3125C19.25 22.275 18.9177 23.0885 18.2531 23.7531C17.5885 24.4177 16.775 24.75 15.8125 24.75C14.85 24.75 14.0365 24.4177 13.3719 23.7531C12.7073 23.0885 12.375 22.275 12.375 21.3125V8.25H14.4375V21.3125C14.4375 21.7021 14.5693 22.0286 14.8328 22.2922C15.0964 22.5557 15.4229 22.6875 15.8125 22.6875C16.2021 22.6875 16.5286 22.5557 16.7922 22.2922C17.0557 22.0286 17.1875 21.7021 17.1875 21.3125V8.25C17.1875 7.2875 16.8552 6.47396 16.1906 5.80938C15.526 5.14479 14.7125 4.8125 13.75 4.8125C12.7875 4.8125 11.974 5.14479 11.3094 5.80938C10.6448 6.47396 10.3125 7.2875 10.3125 8.25V22.6875C10.3125 24.2 10.851 25.4948 11.9281 26.5719C13.0052 27.649 14.3 28.1875 15.8125 28.1875C17.325 28.1875 18.6198 27.649 19.6969 26.5719C20.774 25.4948 21.3125 24.2 21.3125 22.6875V8.25H23.375V22.6875C23.375 24.7958 22.6417 26.5833 21.175 28.05C19.7083 29.5167 17.9208 30.25 15.8125 30.25Z" fill="white"/>
</svg>
