<svg width="25" height="25" viewBox="0 0 25 25" fill="none" xmlns="http://www.w3.org/2000/svg">
<path d="M12.4998 12.5C11.354 12.5 10.3731 12.092 9.55713 11.2761C8.74116 10.4601 8.33317 9.47919 8.33317 8.33335C8.33317 7.18752 8.74116 6.20662 9.55713 5.39065C10.3731 4.57467 11.354 4.16669 12.4998 4.16669C13.6457 4.16669 14.6266 4.57467 15.4425 5.39065C16.2585 6.20662 16.6665 7.18752 16.6665 8.33335C16.6665 9.47919 16.2585 10.4601 15.4425 11.2761C14.6266 12.092 13.6457 12.5 12.4998 12.5ZM4.1665 20.8334V17.9167C4.1665 17.3264 4.31841 16.7839 4.62223 16.2891C4.92605 15.7943 5.3297 15.4167 5.83317 15.1563C6.90956 14.6181 8.00331 14.2144 9.11442 13.9453C10.2255 13.6762 11.354 13.5417 12.4998 13.5417C13.6457 13.5417 14.7741 13.6762 15.8853 13.9453C16.9964 14.2144 18.0901 14.6181 19.1665 15.1563C19.67 15.4167 20.0736 15.7943 20.3774 16.2891C20.6813 16.7839 20.8332 17.3264 20.8332 17.9167V20.8334H4.1665ZM6.24984 18.75H18.7498V17.9167C18.7498 17.7257 18.7021 17.5521 18.6066 17.3959C18.5111 17.2396 18.3853 17.1181 18.229 17.0313C17.2915 16.5625 16.3453 16.211 15.3905 15.9766C14.4356 15.7422 13.4721 15.625 12.4998 15.625C11.5276 15.625 10.5641 15.7422 9.60921 15.9766C8.65435 16.211 7.70817 16.5625 6.77067 17.0313C6.61442 17.1181 6.48855 17.2396 6.39307 17.3959C6.29758 17.5521 6.24984 17.7257 6.24984 17.9167V18.75ZM12.4998 10.4167C13.0728 10.4167 13.5632 10.2127 13.9712 9.80471C14.3792 9.39672 14.5832 8.90627 14.5832 8.33335C14.5832 7.76044 14.3792 7.26999 13.9712 6.862C13.5632 6.45401 13.0728 6.25002 12.4998 6.25002C11.9269 6.25002 11.4365 6.45401 11.0285 6.862C10.6205 7.26999 10.4165 7.76044 10.4165 8.33335C10.4165 8.90627 10.6205 9.39672 11.0285 9.80471C11.4365 10.2127 11.9269 10.4167 12.4998 10.4167Z" fill="#1D1B20"/>
</svg>
