<svg xmlns="http://www.w3.org/2000/svg" viewBox="0 0 500 500" xml:space="preserve"><path style="fill:#292a5d" d="M194.553 161.661c-1.13-11.768-13.403-22.645-38.454-22.645s-39.844 24.071-36.458 50.816-33.148 22.645-21.03 57.77 80.49 36.66 104.403 23.679 12.151-37.769 5.379-49.803c-6.772-12.032-3.265-52.863-13.84-59.817"/><path style="fill:#fff" d="m222 379.907-19.605-42.976 12.12 103.06H87.855l5.19-149.062-22.175-16.757c9.445-21.04 33.15-43.231 81.165-42.26 29.335.595 46.065 9.264 56.545 21.25 8.41 9.61 12.8 21.35 16.45 32.776 8.2 25.677 23.28 88.918 23.28 88.918z"/><path style="fill:#9cb3f8" d="M248.31 374.855 222 379.907l-19.605-42.976s-1.9-15.297-1.9-22.566 13.545-22.961 4.755-37.698c-6.675-12.491-3.21-23.171 3.33-23.506 8.41 9.61 12.8 21.35 16.45 32.776 8.2 25.678 23.28 88.918 23.28 88.918M140.647 229.47s-8.557 3.833-10.339 7.756 2.762 18.276 11.851 22.823 12.497-8.559 15.249-8.559 12.464 10.252 13.712 7.756 8.276-17.295-2.501-21.753"/><path style="fill:#f5bab7" d="M154.482 250.496h.005c7.495 0 14.035-5.017 16.02-12.196q.091-.345.175-.705l2.14-9.324-30.89-14.862-1.285 5.898-2.4 11.025c-2.26 10.364 5.635 20.164 16.235 20.164"/><path style="fill:#da7a76" d="M140.647 219.306c3.925 10.615 10.75 20.075 29.86 18.994q.091-.345.175-.705l2.14-9.324-30.89-14.862z"/><path style="fill:#f6c9c5" d="M191.448 161.626c-27.654 36.895-49.634 15.32-49.634 15.32s.713 5.26-1.158 10.342-1.871 10.787-3.921 11.144-1.515-9.42-3.98-11.322-14.198-.178-11.168 9.628 14.347 5.171 14.347 5.171l2.192 9.551a19.7 19.7 0 0 0 1.284 3.783 27.68 27.68 0 0 0 25.174 16.175 27.685 27.685 0 0 0 26.209-18.779 12.3 12.3 0 0 0 .656-3.971v-47.042z"/><path style="fill:#fff" d="M168.19 216.936a4.76 4.76 0 0 1-4.757 4.759 4.76 4.76 0 0 1-4.757-4.759"/><path style="fill:none;stroke:#da7a76;stroke-width:1.5004;stroke-linecap:round;stroke-linejoin:round;stroke-miterlimit:10" d="M127.779 199.011c4.411.357 3.787-5.795.98-6.998s-4.01 1.025-4.01 1.025m44.066-3.606s3.624 15.156 3.267 18.544c-.356 3.388-6.951 1.516-6.951 1.516"/><path style="fill:#292a5d" d="M154.099 199.026a2.495 2.495 0 1 0 4.99.002 2.495 2.495 0 0 0-4.99-.002m26.376 0a2.495 2.495 0 1 0 4.99.002 2.495 2.495 0 0 0-4.99-.002"/><path style="fill:none;stroke:#292a5d;stroke-width:2.5006;stroke-linecap:round;stroke-linejoin:round;stroke-miterlimit:10" d="M161.751 189.432s-5.792-4.908-12.03.531m39.016-.531s-5.792-4.908-12.03.531"/><path style="fill:#f5bab7" d="M146.062 207.703a4.605 4.605 0 1 0 9.208 0 4.605 4.605 0 1 0-9.208 0m34.367 0a4.605 4.605 0 1 0 9.208 0 4.605 4.605 0 1 0-9.208 0"/><ellipse transform="rotate(-89.845 157.41 200.377)" style="fill:none;stroke:#fff;stroke-width:1.0002;stroke-linecap:round;stroke-linejoin:round;stroke-miterlimit:10" cx="157.408" cy="200.377" rx="9.588" ry="9.583"/><ellipse transform="rotate(-89.845 183.778 200.376)" style="fill:none;stroke:#fff;stroke-width:1.0002;stroke-linecap:round;stroke-linejoin:round;stroke-miterlimit:10" cx="183.784" cy="200.377" rx="9.588" ry="9.583"/><path style="fill:none;stroke:#fff;stroke-width:1.0002;stroke-linecap:round;stroke-linejoin:round;stroke-miterlimit:10" d="M166.586 197.615h8.021m-26.138-.692-12.547-4.54"/><path style="fill:#f3a34e" d="m183.1 274.142-3.375 30.104-1.77 15.778-4.045 36.042c-.285 2.531-2.565 4.582-5.1 4.582h-57.12c-2.53 0-4.355-2.051-4.07-4.582l.66-5.878 3.885-34.657 4.645-41.39c.285-2.531 2.57-4.587 5.1-4.587h57.12c2.535 0 4.355 2.056 4.07 4.588"/><path style="fill:#292a5d" d="M157.22 273.678h-14.422c-2.276 0-3.913-1.846-3.658-4.122.255-2.277 2.307-4.122 4.583-4.122h14.422c2.276 0 3.913 1.846 3.658 4.122-.256 2.276-2.308 4.122-4.583 4.122"/><path style="fill:#ef7747" d="m179.725 304.246-1.77 15.778-25.915 16.553-28.635 10.7-15.125 2.911 3.885-34.657c10.47.395 26.215.765 29.635-.43 5.23-1.821 13.785-13.231 17.585-12.521 3.805.715 2.96 8.559 2.96 8.559s11.345-2.816 17.38-6.893"/><path style="fill:#f5bab7" d="M147.505 321.243s8.673-19.494 11.881-18.662-1.901 15.453-1.901 15.453 19.604-9.985 22.218-12.719 3.445 12.957-1.307 24.011c-4.752 11.055-22.099 16.879-28.515 20.564"/><path style="fill:#9cb3f8" d="M152.035 350.483c.24.936-29.365 13.056-57.57 24.372-21.26 8.524-43.39-10.22-38.495-32.606l14.9-68.078c12.12-26.388 33.865-10.7 33.505 8.204-.17 9.069-2.785 21.51-5.465 31.99-2.855 11.19-5.775 20.155-5.86 20.425h.005c.77-.28 53.71-19.589 55.32-16.758 1.625 2.857 3.205 30.67 3.66 32.451"/><path style="fill:#7281f6" d="M98.91 314.366c-2.855 11.19-5.775 20.155-5.86 20.425l-.005.005-17.185 5.528z"/><path style="fill:#fff" d="M276.98 161.628a19.04 19.04 0 0 1-5.585 13.492 19 19 0 0 1-13.485 5.588h-20.42l-8.72 8.724v-8.724h-1.285c-10.535 0-19.07-8.544-19.07-19.079 0-5.273 2.135-10.04 5.585-13.492a19 19 0 0 1 13.485-5.588h30.425c10.535-.001 19.07 8.538 19.07 19.079"/><circle style="fill:#c6d2eb" cx="229.272" cy="161.626" r="2.109"/><circle style="fill:#c6d2eb" cx="242.697" cy="161.626" r="2.109"/><path style="fill:#c6d2eb" d="M258.232 161.626a2.11 2.11 0 1 1-4.22 0 2.11 2.11 0 0 1 4.22 0"/><path style="fill:#f5bab7" d="M293.878 372.364s-4.265 12.586-12.065 18.399c-1.77 1.321-5.7 3.106-10.715 5.082-17.07 6.728-46.715 15.617-46.715 15.617l-15.97-17.849 44.24-26.017 6.055-3.562z"/><path style="fill:#da7a76" d="M293.878 372.364s-4.265 12.586-12.065 18.399c-1.77 1.321-5.7 3.106-10.715 5.082l-18.445-28.249 6.055-3.562z"/><path style="fill:#ebf0fd" d="m448.593 298.663-10.17 23.101-6.94 15.763-1.905 99.613h-120.71l.87-65.672.26-19.734s1.555-50.814 9.335-70.974c14.255-5.103 31.855-8.469 31.855-8.469h39.48s49.07 4.022 57.925 26.372"/><path style="fill:#dae3f6" d="m438.423 321.764-6.94 15.763-1.905 99.613h-120.71l.87-65.672c6.815 2.236 31.91 8.504 60.51-8.504 33.575-19.97 33.67-66.567 55.77-72.035z"/><path style="fill:#f5bab7" d="M401.183 416.22c-1.395.305-3.385.67-5.82 1.076-16.66 2.776-54.065 7.484-62.26 7.484-9.385 0-19.275-3.687-20.97-3.952-1.69-.27-14.61 9.985-17.73 6.683-3.04-3.211 4.24-10.485 4.62-10.86-.46.395-11.81 10.09-14.6 7.118-2.815-2.991 6.08-13.181 6.32-13.457-.305.26-11.515 9.76-13.27 6.768-1.785-3.031 15.235-22.971 19.515-24.397 4.275-1.426 30.175 10.46 31.6 10.225 1.21-.205 36.675-11.606 47.65-15.137 2.015-.645 3.205-1.03 3.205-1.03s32.91 9.745 33.385 11.175c.475 1.426-.715 15.928-11.645 18.304"/><path style="fill:none;stroke:#da7a76;stroke-width:1.5004;stroke-linecap:round;stroke-linejoin:round;stroke-miterlimit:10" d="m287.397 414.599 11.626-13.743m0 15.794 11.27-9.197"/><path style="fill:#da7a76" d="M401.183 416.22c-1.395.305-3.385.67-5.82 1.076l-19.125-29.524c2.015-.645 3.205-1.03 3.205-1.03s32.91 9.745 33.385 11.175c.475 1.425-.715 15.927-11.645 18.303"/><path style="fill:#fff" d="m404.059 315.181-24.618 71.559 33.472 17.593s35.558-75.957 38.053-94.144-26.804-40.297-46.907 4.992"/><path style="fill:#ebf0fd" d="m409.537 408.833-32.836-20.163a5.21 5.21 0 0 1-1.714-7.162l2.756-4.493a5.21 5.21 0 0 1 7.165-1.715l32.836 20.163a5.21 5.21 0 0 1 1.714 7.162l-2.756 4.493a5.207 5.207 0 0 1-7.165 1.715"/><path style="fill:#fff" d="M319.333 280.76c-7.78 20.16-9.335 70.974-9.335 70.974l-20.14 28.174-30.3-15.337s35.825-64.366 42.955-74.351c2.49-3.487 9.17-6.724 16.82-9.46"/><path style="fill:#ebf0fd" d="m289.656 385.969-32.836-20.163a5.21 5.21 0 0 1-1.714-7.162l2.756-4.493a5.21 5.21 0 0 1 7.165-1.715l32.836 20.163a5.21 5.21 0 0 1 1.714 7.162l-2.756 4.493a5.21 5.21 0 0 1-7.165 1.715"/><path style="fill:#fff" d="M360.55 268.287c-7.96 0-11.506 5.171-11.961 15.156s2.575 14.086 7.03 9.985 8.402-9.337 10.65-9.183c2.247.155 6.459 11.443 15.192 10.759 8.733-.685 17.109-21.771 2.673-29.682"/><path style="fill:#292a5d" d="M404.002 217.893c-.89 11.235-10.16 18.899-13.545 27.103-3.385 8.199-12.12 11.055-17.285 5.618l-38.855-42.35c-6.675-1.671-10.965-4.007-13.605-6.538-4.685-4.487-4.145-9.575-2.435-12.541 2.62-4.537 10.535-.19 10.865-.005-.31-.28-7.235-6.583-4.27-14.077 3.03-7.669 14.82 2.136 23.72 2.316 8.895.18 39.015-3.031 45.785 6.598 3.145 4.472 3.535 9.054 3.05 12.686-.56 4.187-2.285 7.103-2.285 7.103s9.75 2.852 8.86 14.087"/><path style="fill:#141644" d="M404.002 217.893c-.89 11.235-10.16 18.899-13.545 27.103-3.385 8.199-12.12 11.055-17.285 5.618l-38.855-42.35c-6.675-1.671-10.965-4.007-13.605-6.538-2.465-7.619 6.36-9.079 13.905-5.763 9.74 4.277 33.98 5.823 45.145 6.063 8.14.17 14.705-3.382 17.665-5.323-.56 4.187-2.285 7.103-2.285 7.103s9.75 2.852 8.86 14.087"/><path style="fill:#f5bab7" d="M368.522 284.4h-.005c-7.495 0-14.035-5.017-16.02-12.196q-.091-.345-.175-.705l-2.14-9.325 30.89-14.862 1.285 5.898 2.4 11.025c2.26 10.365-5.635 20.165-16.235 20.165"/><path style="fill:#da7a76" d="M382.357 253.21c-3.925 10.615-10.75 20.075-29.86 18.994q-.091-.345-.175-.705l-2.14-9.325 30.89-14.862z"/><path style="fill:#f6c9c5" d="M331.556 201.044c6.772 14.353 49.634 9.807 49.634 9.807s-.713 5.26 1.159 10.342 1.871 10.787 3.921 11.144 1.515-9.42 3.98-11.322 14.198-.178 11.168 9.628-14.347 5.171-14.347 5.171l-2.192 9.551a19.7 19.7 0 0 1-1.284 3.783 27.68 27.68 0 0 1-25.174 16.175 27.68 27.68 0 0 1-26.208-18.779 12.3 12.3 0 0 1-.656-3.971v-41.529z"/><path style="fill:none;stroke:#da7a76;stroke-width:1.5004;stroke-linecap:round;stroke-linejoin:round;stroke-miterlimit:10" d="M395.224 232.915c-4.411.357-3.787-5.795-.98-6.998s4.01 1.025 4.01 1.025m-44.065-3.606s-3.624 15.156-3.267 18.544c.356 3.388 6.951 1.516 6.951 1.516"/><path style="fill:#292a5d" d="M370.229 232.425a2.495 2.495 0 1 1-4.99.002 2.495 2.495 0 0 1 4.99-.002m-26.376 0a2.495 2.495 0 1 1-4.99.002 2.495 2.495 0 0 1 4.99-.002"/><path style="fill:none;stroke:#292a5d;stroke-width:2.5006;stroke-linecap:round;stroke-linejoin:round;stroke-miterlimit:10" d="M363.546 223.336s5.792-4.908 12.03.531m-39.016-.531s5.792-4.908 12.03.531"/><path style="fill:none;stroke:#da7a76;stroke-width:1.5004;stroke-linecap:round;stroke-linejoin:round;stroke-miterlimit:10" d="M359.209 251.236s4.476 1.664 7.525-1.664"/><path style="fill:#f5bab7" d="M376.942 241.608a4.605 4.605 0 1 1-9.208 0 4.605 4.605 0 1 1 9.208 0m-34.367 0a4.605 4.605 0 1 1-9.208 0 4.605 4.605 0 1 1 9.208 0"/><path style="fill:#141644" d="M336.953 427.756h-90.234a4.69 4.69 0 0 0-4.691 4.691v.002a4.69 4.69 0 0 0 4.691 4.691h90.234a4.69 4.69 0 0 0 4.691-4.691v-.002a4.69 4.69 0 0 0-4.691-4.691"/><path style="fill:#141644" d="M254.034 437.14H111.816c-2.067 0-3.997-1.676-4.312-3.744l-14.416-94.857c-.314-2.068 1.107-3.744 3.174-3.744H238.48c2.067 0 3.997 1.676 4.312 3.744l14.416 94.857c.314 2.067-1.107 3.744-3.174 3.744"/><path style="fill:#292a5d" d="M248.846 437.14H106.628c-2.067 0-3.997-1.676-4.312-3.744L87.9 338.539c-.314-2.068 1.107-3.744 3.174-3.744h142.218c2.067 0 3.997 1.676 4.312 3.744l14.416 94.857c.314 2.067-1.107 3.744-3.174 3.744"/><path style="fill:#141644" d="M174.6 394.694h-5.524c-3.292 0-6.535-2.67-7.244-5.964l-1.189-5.527c-.709-3.294 1.386-5.964 4.678-5.964h5.524c3.292 0 6.535 2.67 7.244 5.964l1.189 5.527c.708 3.294-1.386 5.964-4.678 5.964"/><circle style="fill:#292a5d" cx="294" cy="432.448" r="1.044"/><path style="fill:#6ed7c2" d="M75.025 388.702c-1.66 10.66-4.88 23.101-11.115 33.176l-36.355-3.442c-3.085-6.443-5.505-12.816-7.4-18.834-6.64-21.085-6.86-37.813-6.86-37.813s12.025 25.112 17.575 35.687c1.665 3.172 2.745 5.037 2.745 4.522 0-.35.07-2.211.185-5.102.64-15.568 2.665-60.959 2.665-60.959l9.96 58.448.735 4.312.975-4.652 12.21-58.108v64.191l4.4-9.38 11.995-25.572c0-.001.325 10.414-1.715 23.526"/><path style="fill:#4dadbe" d="M75.025 388.702c-1.66 10.66-4.88 23.101-11.115 33.176l-36.355-3.442c-3.085-6.443-5.505-12.816-7.4-18.834l10.715-2.126c1.665 3.172 2.745 5.037 2.745 4.522 0-.35.07-2.211.185-5.102l12.625-2.511.735 4.312.975-4.652 12.21-2.426v8.509l4.4-9.38z"/><path style="fill:#fff" d="M75.86 407.453H14.198l9.214 29.687h43.235z"/></svg>